<svg xmlns="http://www.w3.org/2000/svg" xmlns:xlink="http://www.w3.org/1999/xlink" width="500" zoomAndPan="magnify" viewBox="0 0 375 374.999991" height="500" preserveAspectRatio="xMidYMid meet" version="1.0"><defs><g/></defs><g fill="#00bf63" fill-opacity="1"><g transform="translate(1.389185, 198.657883)"><g><path d="M 40.125 1.953125 C 33.53125 1.953125 27.804688 0.742188 22.953125 -1.671875 C 18.097656 -4.097656 14.363281 -7.660156 11.75 -12.359375 C 9.144531 -17.054688 7.84375 -22.703125 7.84375 -29.296875 C 7.84375 -35.390625 9.144531 -40.503906 11.75 -44.640625 C 14.363281 -48.773438 18.40625 -52.164062 23.875 -54.8125 C 29.351562 -57.457031 36.507812 -59.492188 45.34375 -60.921875 C 51.5 -61.921875 56.175781 -63.007812 59.375 -64.1875 C 62.582031 -65.375 64.742188 -66.710938 65.859375 -68.203125 C 66.984375 -69.691406 67.546875 -71.585938 67.546875 -73.890625 C 67.546875 -77.191406 66.394531 -79.710938 64.09375 -81.453125 C 61.789062 -83.191406 57.96875 -84.0625 52.625 -84.0625 C 46.894531 -84.0625 41.445312 -82.785156 36.28125 -80.234375 C 31.125 -77.679688 26.648438 -74.320312 22.859375 -70.15625 L 21 -70.15625 L 10.171875 -86.484375 C 15.390625 -92.273438 21.757812 -96.785156 29.28125 -100.015625 C 36.8125 -103.253906 45.023438 -104.875 53.921875 -104.875 C 67.546875 -104.875 77.40625 -101.976562 83.5 -96.1875 C 89.59375 -90.40625 92.640625 -82.195312 92.640625 -71.5625 L 92.640625 -26.875 C 92.640625 -22.269531 94.664062 -19.96875 98.71875 -19.96875 C 100.269531 -19.96875 101.789062 -20.25 103.28125 -20.8125 L 104.59375 -20.4375 L 106.453125 -2.421875 C 105.023438 -1.492188 103.035156 -0.734375 100.484375 -0.140625 C 97.929688 0.453125 95.132812 0.75 92.09375 0.75 C 85.925781 0.75 81.117188 -0.429688 77.671875 -2.796875 C 74.222656 -5.160156 71.75 -8.863281 70.25 -13.90625 L 68.296875 -14.09375 C 63.253906 -3.394531 53.863281 1.953125 40.125 1.953125 Z M 48.328125 -17.359375 C 54.296875 -17.359375 59.066406 -19.363281 62.640625 -23.375 C 66.222656 -27.382812 68.015625 -32.96875 68.015625 -40.125 L 68.015625 -50.5625 L 66.25 -50.9375 C 64.6875 -49.695312 62.644531 -48.65625 60.125 -47.8125 C 57.613281 -46.976562 53.992188 -46.15625 49.265625 -45.34375 C 43.660156 -44.40625 39.628906 -42.800781 37.171875 -40.53125 C 34.722656 -38.269531 33.5 -35.050781 33.5 -30.875 C 33.5 -26.46875 34.800781 -23.113281 37.40625 -20.8125 C 40.019531 -18.507812 43.660156 -17.359375 48.328125 -17.359375 Z M 48.328125 -17.359375 "/></g></g></g><g fill="#00bf63" fill-opacity="1"><g transform="translate(105.305468, 198.657883)"><g><path d="M 48.140625 1.953125 C 41.109375 1.953125 34.671875 1.128906 28.828125 -0.515625 C 22.984375 -2.160156 17.992188 -4.425781 13.859375 -7.3125 C 9.722656 -10.207031 6.660156 -13.523438 4.671875 -17.265625 L 19.03125 -32.75 L 21 -32.75 C 24.414062 -28.144531 28.457031 -24.691406 33.125 -22.390625 C 37.789062 -20.085938 42.859375 -18.9375 48.328125 -18.9375 C 53.367188 -18.9375 57.160156 -19.835938 59.703125 -21.640625 C 62.253906 -23.441406 63.53125 -26.023438 63.53125 -29.390625 C 63.53125 -32.003906 62.613281 -34.195312 60.78125 -35.96875 C 58.945312 -37.738281 55.976562 -39.125 51.875 -40.125 L 38.25 -43.390625 C 28.050781 -45.804688 20.601562 -49.519531 15.90625 -54.53125 C 11.207031 -59.539062 8.859375 -65.898438 8.859375 -73.609375 C 8.859375 -80.015625 10.488281 -85.582031 13.75 -90.3125 C 17.019531 -95.039062 21.625 -98.648438 27.5625 -101.140625 C 33.507812 -103.628906 40.429688 -104.875 48.328125 -104.875 C 57.597656 -104.875 65.28125 -103.535156 71.375 -100.859375 C 77.46875 -98.179688 82.226562 -94.601562 85.65625 -90.125 L 71.84375 -75.203125 L 69.96875 -75.203125 C 67.113281 -78.429688 63.894531 -80.789062 60.3125 -82.28125 C 56.738281 -83.78125 52.742188 -84.53125 48.328125 -84.53125 C 38.128906 -84.53125 33.03125 -81.359375 33.03125 -75.015625 C 33.03125 -72.335938 33.976562 -70.160156 35.875 -68.484375 C 37.769531 -66.804688 41.113281 -65.4375 45.90625 -64.375 L 58.59375 -61.578125 C 69.039062 -59.335938 76.675781 -55.742188 81.5 -50.796875 C 86.320312 -45.859375 88.734375 -39.21875 88.734375 -30.875 C 88.734375 -24.34375 87.113281 -18.585938 83.875 -13.609375 C 80.644531 -8.640625 75.976562 -4.800781 69.875 -2.09375 C 63.78125 0.601562 56.535156 1.953125 48.140625 1.953125 Z M 48.140625 1.953125 "/></g></g></g><g fill="#00bf63" fill-opacity="1"><g transform="translate(195.600657, 198.657883)"><g><path d="M 14.828125 0 L 14.828125 -102.90625 L 39.65625 -102.90625 L 39.65625 -89.09375 L 41.609375 -88.734375 C 44.972656 -94.265625 48.90625 -98.335938 53.40625 -100.953125 C 57.914062 -103.566406 63.6875 -104.875 70.71875 -104.875 C 78.5 -104.875 84.75 -103.332031 89.46875 -100.25 C 94.195312 -97.164062 97.648438 -92.671875 99.828125 -86.765625 L 101.796875 -86.765625 C 104.960938 -92.921875 109.046875 -97.476562 114.046875 -100.4375 C 119.054688 -103.394531 125.296875 -104.875 132.765625 -104.875 C 154.097656 -104.875 164.765625 -92.992188 164.765625 -69.234375 L 164.765625 0 L 138.921875 0 L 138.921875 -65.96875 C 138.921875 -72 137.738281 -76.347656 135.375 -79.015625 C 133.007812 -81.691406 129.21875 -83.03125 124 -83.03125 C 109.8125 -83.03125 102.71875 -73.546875 102.71875 -54.578125 L 102.71875 0 L 76.875 0 L 76.875 -65.96875 C 76.875 -72 75.675781 -76.347656 73.28125 -79.015625 C 70.882812 -81.691406 67.078125 -83.03125 61.859375 -83.03125 C 55.203125 -83.03125 50.003906 -80.804688 46.265625 -76.359375 C 42.535156 -71.910156 40.671875 -64.835938 40.671875 -55.140625 L 40.671875 0 Z M 14.828125 0 "/></g></g></g><g fill="#00bf63" fill-opacity="1"><g transform="translate(82.027807, 282.945023)"><g><path d="M 25.4375 1.171875 C 19.363281 1.171875 14.617188 -0.410156 11.203125 -3.578125 C 7.796875 -6.742188 6.09375 -11.269531 6.09375 -17.15625 C 6.09375 -20.8125 6.847656 -23.894531 8.359375 -26.40625 C 9.867188 -28.925781 12.207031 -30.976562 15.375 -32.5625 C 18.539062 -34.144531 22.675781 -35.367188 27.78125 -36.234375 C 32.257812 -36.972656 35.660156 -37.804688 37.984375 -38.734375 C 40.316406 -39.671875 41.882812 -40.71875 42.6875 -41.875 C 43.488281 -43.03125 43.890625 -44.484375 43.890625 -46.234375 C 43.890625 -49.023438 42.925781 -51.164062 41 -52.65625 C 39.082031 -54.15625 36 -54.90625 31.75 -54.90625 C 27.769531 -54.90625 24.351562 -54.128906 21.5 -52.578125 C 18.644531 -51.035156 16.023438 -48.734375 13.640625 -45.671875 L 12.53125 -45.671875 L 8.046875 -52 C 10.660156 -55.3125 13.976562 -57.945312 18 -59.90625 C 22.03125 -61.863281 26.613281 -62.84375 31.75 -62.84375 C 39.019531 -62.84375 44.378906 -61.25 47.828125 -58.0625 C 51.273438 -54.875 53 -50.46875 53 -44.84375 L 53 -12.125 C 53 -8.695312 54.453125 -6.984375 57.359375 -6.984375 C 58.328125 -6.984375 59.257812 -7.148438 60.15625 -7.484375 L 60.9375 -7.265625 L 62 -0.953125 C 61.332031 -0.503906 60.445312 -0.160156 59.34375 0.078125 C 58.25 0.328125 57.125 0.453125 55.96875 0.453125 C 52.570312 0.453125 50.003906 -0.289062 48.265625 -1.78125 C 46.535156 -3.28125 45.429688 -5.484375 44.953125 -8.390625 L 43.78125 -8.5 C 42.03125 -5.257812 39.660156 -2.835938 36.671875 -1.234375 C 33.691406 0.367188 29.945312 1.171875 25.4375 1.171875 Z M 27.453125 -6.09375 C 30.878906 -6.09375 33.847656 -6.882812 36.359375 -8.46875 C 38.878906 -10.050781 40.8125 -12.273438 42.15625 -15.140625 C 43.5 -18.015625 44.171875 -21.335938 44.171875 -25.109375 L 44.171875 -32.9375 L 43.109375 -33.15625 C 41.722656 -32.1875 40.039062 -31.375 38.0625 -30.71875 C 36.09375 -30.070312 33.335938 -29.484375 29.796875 -28.953125 C 26.222656 -28.472656 23.378906 -27.726562 21.265625 -26.71875 C 19.160156 -25.71875 17.660156 -24.441406 16.765625 -22.890625 C 15.878906 -21.347656 15.4375 -19.4375 15.4375 -17.15625 C 15.4375 -13.539062 16.492188 -10.789062 18.609375 -8.90625 C 20.734375 -7.03125 23.679688 -6.09375 27.453125 -6.09375 Z M 27.453125 -6.09375 "/></g></g></g><g fill="#00bf63" fill-opacity="1"><g transform="translate(143.072282, 282.945023)"><g><path d="M 10.734375 0 L 10.734375 -61.671875 L 19.40625 -61.671875 L 19.40625 -52 L 20.578125 -51.71875 C 23.441406 -58.71875 28.84375 -62.21875 36.78125 -62.21875 C 41 -62.21875 44.148438 -61.457031 46.234375 -59.9375 L 43.890625 -52.21875 L 42.765625 -52 C 40.453125 -53.15625 37.921875 -53.734375 35.171875 -53.734375 C 30.242188 -53.734375 26.457031 -51.882812 23.8125 -48.1875 C 21.164062 -44.5 19.84375 -38.519531 19.84375 -30.25 L 19.84375 0 Z M 10.734375 0 "/></g></g></g><g fill="#00bf63" fill-opacity="1"><g transform="translate(187.958927, 282.945023)"><g><path d="M 10.734375 0 L 10.734375 -61.671875 L 19.40625 -61.671875 L 19.40625 -52.546875 L 20.578125 -52.328125 C 22.660156 -55.796875 25.179688 -58.414062 28.140625 -60.1875 C 31.109375 -61.957031 34.660156 -62.84375 38.796875 -62.84375 C 43.566406 -62.84375 47.253906 -61.9375 49.859375 -60.125 C 52.472656 -58.320312 54.507812 -55.40625 55.96875 -51.375 L 57.140625 -51.375 C 59.265625 -55.144531 61.878906 -58 64.984375 -59.9375 C 68.097656 -61.875 71.929688 -62.84375 76.484375 -62.84375 C 82.816406 -62.84375 87.539062 -61.125 90.65625 -57.6875 C 93.769531 -54.257812 95.328125 -49.046875 95.328125 -42.046875 L 95.328125 0 L 86.203125 0 L 86.203125 -41.8125 C 86.203125 -46.289062 85.257812 -49.59375 83.375 -51.71875 C 81.5 -53.84375 78.472656 -54.90625 74.296875 -54.90625 C 69.378906 -54.90625 65.363281 -53.113281 62.25 -49.53125 C 59.132812 -45.957031 57.578125 -40.070312 57.578125 -31.875 L 57.578125 0 L 48.46875 0 L 48.46875 -41.8125 C 48.46875 -46.289062 47.523438 -49.59375 45.640625 -51.71875 C 43.765625 -53.84375 40.738281 -54.90625 36.5625 -54.90625 C 31.644531 -54.90625 27.628906 -53.171875 24.515625 -49.703125 C 21.398438 -46.234375 19.84375 -40.601562 19.84375 -32.8125 L 19.84375 0 Z M 10.734375 0 "/></g></g></g></svg>