<svg xmlns="http://www.w3.org/2000/svg" xmlns:xlink="http://www.w3.org/1999/xlink" width="500" zoomAndPan="magnify" viewBox="0 0 375 374.999991" height="500" preserveAspectRatio="xMidYMid meet" version="1.0"><defs><g/></defs><g fill="#00bf63" fill-opacity="1"><g transform="translate(1.389185, 198.657853)"><g><path d="M 40.125 1.953125 C 33.53125 1.953125 27.804688 0.742188 22.953125 -1.671875 C 18.097656 -4.097656 14.363281 -7.660156 11.75 -12.359375 C 9.144531 -17.054688 7.84375 -22.703125 7.84375 -29.296875 C 7.84375 -35.390625 9.144531 -40.503906 11.75 -44.640625 C 14.363281 -48.773438 18.40625 -52.164062 23.875 -54.8125 C 29.351562 -57.457031 36.507812 -59.492188 45.34375 -60.921875 C 51.5 -61.921875 56.175781 -63.007812 59.375 -64.1875 C 62.582031 -65.375 64.742188 -66.710938 65.859375 -68.203125 C 66.984375 -69.691406 67.546875 -71.585938 67.546875 -73.890625 C 67.546875 -77.191406 66.394531 -79.710938 64.09375 -81.453125 C 61.789062 -83.191406 57.96875 -84.0625 52.625 -84.0625 C 46.894531 -84.0625 41.445312 -82.785156 36.28125 -80.234375 C 31.125 -77.679688 26.648438 -74.320312 22.859375 -70.15625 L 21 -70.15625 L 10.171875 -86.484375 C 15.390625 -92.273438 21.757812 -96.785156 29.28125 -100.015625 C 36.8125 -103.253906 45.023438 -104.875 53.921875 -104.875 C 67.546875 -104.875 77.40625 -101.976562 83.5 -96.1875 C 89.59375 -90.40625 92.640625 -82.195312 92.640625 -71.5625 L 92.640625 -26.875 C 92.640625 -22.269531 94.664062 -19.96875 98.71875 -19.96875 C 100.269531 -19.96875 101.789062 -20.25 103.28125 -20.8125 L 104.59375 -20.4375 L 106.453125 -2.421875 C 105.023438 -1.492188 103.035156 -0.734375 100.484375 -0.140625 C 97.929688 0.453125 95.132812 0.75 92.09375 0.75 C 85.925781 0.75 81.117188 -0.429688 77.671875 -2.796875 C 74.222656 -5.160156 71.75 -8.863281 70.25 -13.90625 L 68.296875 -14.09375 C 63.253906 -3.394531 53.863281 1.953125 40.125 1.953125 Z M 48.328125 -17.359375 C 54.296875 -17.359375 59.066406 -19.363281 62.640625 -23.375 C 66.222656 -27.382812 68.015625 -32.96875 68.015625 -40.125 L 68.015625 -50.5625 L 66.25 -50.9375 C 64.6875 -49.695312 62.644531 -48.65625 60.125 -47.8125 C 57.613281 -46.976562 53.992188 -46.15625 49.265625 -45.34375 C 43.660156 -44.40625 39.628906 -42.800781 37.171875 -40.53125 C 34.722656 -38.269531 33.5 -35.050781 33.5 -30.875 C 33.5 -26.46875 34.800781 -23.113281 37.40625 -20.8125 C 40.019531 -18.507812 43.660156 -17.359375 48.328125 -17.359375 Z M 48.328125 -17.359375 "/></g></g></g><g fill="#00bf63" fill-opacity="1"><g transform="translate(105.305468, 198.657853)"><g><path d="M 48.140625 1.953125 C 41.109375 1.953125 34.671875 1.128906 28.828125 -0.515625 C 22.984375 -2.160156 17.992188 -4.425781 13.859375 -7.3125 C 9.722656 -10.207031 6.660156 -13.523438 4.671875 -17.265625 L 19.03125 -32.75 L 21 -32.75 C 24.414062 -28.144531 28.457031 -24.691406 33.125 -22.390625 C 37.789062 -20.085938 42.859375 -18.9375 48.328125 -18.9375 C 53.367188 -18.9375 57.160156 -19.835938 59.703125 -21.640625 C 62.253906 -23.441406 63.53125 -26.023438 63.53125 -29.390625 C 63.53125 -32.003906 62.613281 -34.195312 60.78125 -35.96875 C 58.945312 -37.738281 55.976562 -39.125 51.875 -40.125 L 38.25 -43.390625 C 28.050781 -45.804688 20.601562 -49.519531 15.90625 -54.53125 C 11.207031 -59.539062 8.859375 -65.898438 8.859375 -73.609375 C 8.859375 -80.015625 10.488281 -85.582031 13.75 -90.3125 C 17.019531 -95.039062 21.625 -98.648438 27.5625 -101.140625 C 33.507812 -103.628906 40.429688 -104.875 48.328125 -104.875 C 57.597656 -104.875 65.28125 -103.535156 71.375 -100.859375 C 77.46875 -98.179688 82.226562 -94.601562 85.65625 -90.125 L 71.84375 -75.203125 L 69.96875 -75.203125 C 67.113281 -78.429688 63.894531 -80.789062 60.3125 -82.28125 C 56.738281 -83.78125 52.742188 -84.53125 48.328125 -84.53125 C 38.128906 -84.53125 33.03125 -81.359375 33.03125 -75.015625 C 33.03125 -72.335938 33.976562 -70.160156 35.875 -68.484375 C 37.769531 -66.804688 41.113281 -65.4375 45.90625 -64.375 L 58.59375 -61.578125 C 69.039062 -59.335938 76.675781 -55.742188 81.5 -50.796875 C 86.320312 -45.859375 88.734375 -39.21875 88.734375 -30.875 C 88.734375 -24.34375 87.113281 -18.585938 83.875 -13.609375 C 80.644531 -8.640625 75.976562 -4.800781 69.875 -2.09375 C 63.78125 0.601562 56.535156 1.953125 48.140625 1.953125 Z M 48.140625 1.953125 "/></g></g></g><g fill="#00bf63" fill-opacity="1"><g transform="translate(195.600657, 198.657853)"><g><path d="M 14.828125 0 L 14.828125 -102.90625 L 39.65625 -102.90625 L 39.65625 -89.09375 L 41.609375 -88.734375 C 44.972656 -94.265625 48.90625 -98.335938 53.40625 -100.953125 C 57.914062 -103.566406 63.6875 -104.875 70.71875 -104.875 C 78.5 -104.875 84.75 -103.332031 89.46875 -100.25 C 94.195312 -97.164062 97.648438 -92.671875 99.828125 -86.765625 L 101.796875 -86.765625 C 104.960938 -92.921875 109.046875 -97.476562 114.046875 -100.4375 C 119.054688 -103.394531 125.296875 -104.875 132.765625 -104.875 C 154.097656 -104.875 164.765625 -92.992188 164.765625 -69.234375 L 164.765625 0 L 138.921875 0 L 138.921875 -65.96875 C 138.921875 -72 137.738281 -76.347656 135.375 -79.015625 C 133.007812 -81.691406 129.21875 -83.03125 124 -83.03125 C 109.8125 -83.03125 102.71875 -73.546875 102.71875 -54.578125 L 102.71875 0 L 76.875 0 L 76.875 -65.96875 C 76.875 -72 75.675781 -76.347656 73.28125 -79.015625 C 70.882812 -81.691406 67.078125 -83.03125 61.859375 -83.03125 C 55.203125 -83.03125 50.003906 -80.804688 46.265625 -76.359375 C 42.535156 -71.910156 40.671875 -64.835938 40.671875 -55.140625 L 40.671875 0 Z M 14.828125 0 "/></g></g></g><g fill="#00bf63" fill-opacity="1"><g transform="translate(69.559427, 287.075945)"><g><path d="M 28.6875 0.96875 C 23.738281 0.96875 19.503906 0.171875 15.984375 -1.421875 C 12.472656 -3.015625 9.804688 -5.285156 7.984375 -8.234375 C 6.160156 -11.191406 5.25 -14.679688 5.25 -18.703125 C 5.25 -23.003906 6.316406 -26.59375 8.453125 -29.46875 C 10.585938 -32.351562 13.742188 -34.613281 17.921875 -36.25 L 17.921875 -37.234375 C 14.972656 -38.992188 12.703125 -41.039062 11.109375 -43.375 C 9.515625 -45.707031 8.71875 -48.46875 8.71875 -51.65625 C 8.71875 -55.125 9.535156 -58.148438 11.171875 -60.734375 C 12.816406 -63.316406 15.148438 -65.3125 18.171875 -66.71875 C 21.191406 -68.132812 24.695312 -68.84375 28.6875 -68.84375 C 32.675781 -68.84375 36.1875 -68.132812 39.21875 -66.71875 C 42.25 -65.3125 44.582031 -63.316406 46.21875 -60.734375 C 47.863281 -58.148438 48.6875 -55.125 48.6875 -51.65625 C 48.6875 -48.46875 47.878906 -45.707031 46.265625 -43.375 C 44.660156 -41.039062 42.390625 -38.992188 39.453125 -37.234375 L 39.453125 -36.25 C 43.660156 -34.613281 46.832031 -32.351562 48.96875 -29.46875 C 51.101562 -26.59375 52.171875 -23.003906 52.171875 -18.703125 C 52.171875 -14.648438 51.257812 -11.15625 49.4375 -8.21875 C 47.613281 -5.28125 44.9375 -3.015625 41.40625 -1.421875 C 37.875 0.171875 33.632812 0.96875 28.6875 0.96875 Z M 28.6875 -39.359375 C 31.101562 -39.359375 33.226562 -39.8125 35.0625 -40.71875 C 36.90625 -41.632812 38.34375 -42.953125 39.375 -44.671875 C 40.414062 -46.390625 40.9375 -48.410156 40.9375 -50.734375 C 40.9375 -53.085938 40.414062 -55.128906 39.375 -56.859375 C 38.34375 -58.585938 36.898438 -59.914062 35.046875 -60.84375 C 33.191406 -61.78125 31.070312 -62.25 28.6875 -62.25 C 24.9375 -62.25 21.960938 -61.21875 19.765625 -59.15625 C 17.578125 -57.101562 16.484375 -54.296875 16.484375 -50.734375 C 16.484375 -47.203125 17.578125 -44.421875 19.765625 -42.390625 C 21.960938 -40.367188 24.9375 -39.359375 28.6875 -39.359375 Z M 28.6875 -6.03125 C 33.570312 -6.03125 37.3125 -7.191406 39.90625 -9.515625 C 42.507812 -11.835938 43.8125 -15.070312 43.8125 -19.21875 C 43.8125 -23.332031 42.507812 -26.554688 39.90625 -28.890625 C 37.3125 -31.234375 33.570312 -32.40625 28.6875 -32.40625 C 23.800781 -32.40625 20.054688 -31.234375 17.453125 -28.890625 C 14.847656 -26.554688 13.546875 -23.332031 13.546875 -19.21875 C 13.546875 -15.070312 14.847656 -11.835938 17.453125 -9.515625 C 20.054688 -7.191406 23.800781 -6.03125 28.6875 -6.03125 Z M 28.6875 -6.03125 "/></g></g></g><g fill="#00bf63" fill-opacity="1"><g transform="translate(124.696587, 287.075945)"><g><path d="M 33.375 0.96875 C 28.394531 0.96875 23.921875 -0.226562 19.953125 -2.625 C 15.992188 -5.019531 12.835938 -8.820312 10.484375 -14.03125 C 8.140625 -19.25 6.96875 -25.882812 6.96875 -33.9375 C 6.96875 -41.976562 8.140625 -48.601562 10.484375 -53.8125 C 12.835938 -59.03125 15.992188 -62.835938 19.953125 -65.234375 C 23.921875 -67.640625 28.394531 -68.84375 33.375 -68.84375 C 38.351562 -68.84375 42.820312 -67.640625 46.78125 -65.234375 C 50.75 -62.835938 53.898438 -59.03125 56.234375 -53.8125 C 58.566406 -48.601562 59.734375 -41.976562 59.734375 -33.9375 C 59.734375 -25.882812 58.566406 -19.25 56.234375 -14.03125 C 53.898438 -8.820312 50.75 -5.019531 46.78125 -2.625 C 42.820312 -0.226562 38.351562 0.96875 33.375 0.96875 Z M 33.375 -6.40625 C 39.28125 -6.40625 43.757812 -8.53125 46.8125 -12.78125 C 49.863281 -17.039062 51.390625 -24.09375 51.390625 -33.9375 C 51.390625 -43.769531 49.863281 -50.8125 46.8125 -55.0625 C 43.757812 -59.320312 39.28125 -61.453125 33.375 -61.453125 C 29.476562 -61.453125 26.195312 -60.554688 23.53125 -58.765625 C 20.875 -56.972656 18.835938 -54.046875 17.421875 -49.984375 C 16.015625 -45.929688 15.3125 -40.582031 15.3125 -33.9375 C 15.3125 -27.28125 16.015625 -21.925781 17.421875 -17.875 C 18.835938 -13.820312 20.875 -10.894531 23.53125 -9.09375 C 26.195312 -7.300781 29.476562 -6.40625 33.375 -6.40625 Z M 33.375 -6.40625 "/></g></g></g><g fill="#00bf63" fill-opacity="1"><g transform="translate(189.163717, 287.075945)"><g><path d="M 28.6875 0.96875 C 23.738281 0.96875 19.503906 0.171875 15.984375 -1.421875 C 12.472656 -3.015625 9.804688 -5.285156 7.984375 -8.234375 C 6.160156 -11.191406 5.25 -14.679688 5.25 -18.703125 C 5.25 -23.003906 6.316406 -26.59375 8.453125 -29.46875 C 10.585938 -32.351562 13.742188 -34.613281 17.921875 -36.25 L 17.921875 -37.234375 C 14.972656 -38.992188 12.703125 -41.039062 11.109375 -43.375 C 9.515625 -45.707031 8.71875 -48.46875 8.71875 -51.65625 C 8.71875 -55.125 9.535156 -58.148438 11.171875 -60.734375 C 12.816406 -63.316406 15.148438 -65.3125 18.171875 -66.71875 C 21.191406 -68.132812 24.695312 -68.84375 28.6875 -68.84375 C 32.675781 -68.84375 36.1875 -68.132812 39.21875 -66.71875 C 42.25 -65.3125 44.582031 -63.316406 46.21875 -60.734375 C 47.863281 -58.148438 48.6875 -55.125 48.6875 -51.65625 C 48.6875 -48.46875 47.878906 -45.707031 46.265625 -43.375 C 44.660156 -41.039062 42.390625 -38.992188 39.453125 -37.234375 L 39.453125 -36.25 C 43.660156 -34.613281 46.832031 -32.351562 48.96875 -29.46875 C 51.101562 -26.59375 52.171875 -23.003906 52.171875 -18.703125 C 52.171875 -14.648438 51.257812 -11.15625 49.4375 -8.21875 C 47.613281 -5.28125 44.9375 -3.015625 41.40625 -1.421875 C 37.875 0.171875 33.632812 0.96875 28.6875 0.96875 Z M 28.6875 -39.359375 C 31.101562 -39.359375 33.226562 -39.8125 35.0625 -40.71875 C 36.90625 -41.632812 38.34375 -42.953125 39.375 -44.671875 C 40.414062 -46.390625 40.9375 -48.410156 40.9375 -50.734375 C 40.9375 -53.085938 40.414062 -55.128906 39.375 -56.859375 C 38.34375 -58.585938 36.898438 -59.914062 35.046875 -60.84375 C 33.191406 -61.78125 31.070312 -62.25 28.6875 -62.25 C 24.9375 -62.25 21.960938 -61.21875 19.765625 -59.15625 C 17.578125 -57.101562 16.484375 -54.296875 16.484375 -50.734375 C 16.484375 -47.203125 17.578125 -44.421875 19.765625 -42.390625 C 21.960938 -40.367188 24.9375 -39.359375 28.6875 -39.359375 Z M 28.6875 -6.03125 C 33.570312 -6.03125 37.3125 -7.191406 39.90625 -9.515625 C 42.507812 -11.835938 43.8125 -15.070312 43.8125 -19.21875 C 43.8125 -23.332031 42.507812 -26.554688 39.90625 -28.890625 C 37.3125 -31.234375 33.570312 -32.40625 28.6875 -32.40625 C 23.800781 -32.40625 20.054688 -31.234375 17.453125 -28.890625 C 14.847656 -26.554688 13.546875 -23.332031 13.546875 -19.21875 C 13.546875 -15.070312 14.847656 -11.835938 17.453125 -9.515625 C 20.054688 -7.191406 23.800781 -6.03125 28.6875 -6.03125 Z M 28.6875 -6.03125 "/></g></g></g><g fill="#00bf63" fill-opacity="1"><g transform="translate(244.300883, 287.075945)"><g><path d="M 32.40625 0.96875 C 27.601562 0.96875 23.296875 -0.179688 19.484375 -2.484375 C 15.679688 -4.785156 12.644531 -8.535156 10.375 -13.734375 C 8.101562 -18.929688 6.96875 -25.664062 6.96875 -33.9375 C 6.96875 -41.945312 8.101562 -48.554688 10.375 -53.765625 C 12.644531 -58.984375 15.742188 -62.800781 19.671875 -65.21875 C 23.609375 -67.632812 28.097656 -68.84375 33.140625 -68.84375 C 41.835938 -68.84375 48.242188 -66.195312 52.359375 -60.90625 L 48.453125 -55.65625 L 47.296875 -55.65625 C 43.953125 -59.675781 39.234375 -61.6875 33.140625 -61.6875 C 27.265625 -61.6875 22.78125 -59.460938 19.6875 -55.015625 C 16.59375 -50.578125 15.046875 -43.488281 15.046875 -33.75 L 16.015625 -33.46875 C 17.867188 -37.300781 20.28125 -40.175781 23.25 -42.09375 C 26.226562 -44.019531 29.878906 -44.984375 34.203125 -44.984375 C 38.503906 -44.984375 42.222656 -44.066406 45.359375 -42.234375 C 48.503906 -40.410156 50.910156 -37.773438 52.578125 -34.328125 C 54.253906 -30.878906 55.09375 -26.800781 55.09375 -22.09375 C 55.09375 -17.394531 54.164062 -13.3125 52.3125 -9.84375 C 50.457031 -6.375 47.816406 -3.703125 44.390625 -1.828125 C 40.972656 0.0351562 36.976562 0.96875 32.40625 0.96875 Z M 32.40625 -6.21875 C 36.882812 -6.21875 40.390625 -7.578125 42.921875 -10.296875 C 45.460938 -13.023438 46.734375 -16.957031 46.734375 -22.09375 C 46.734375 -27.257812 45.460938 -31.203125 42.921875 -33.921875 C 40.390625 -36.648438 36.882812 -38.015625 32.40625 -38.015625 C 29.332031 -38.015625 26.664062 -37.382812 24.40625 -36.125 C 22.15625 -34.875 20.414062 -33.054688 19.1875 -30.671875 C 17.96875 -28.296875 17.359375 -25.4375 17.359375 -22.09375 C 17.359375 -18.78125 17.96875 -15.929688 19.1875 -13.546875 C 20.414062 -11.171875 22.15625 -9.351562 24.40625 -8.09375 C 26.664062 -6.84375 29.332031 -6.21875 32.40625 -6.21875 Z M 32.40625 -6.21875 "/></g></g></g></svg>