<svg xmlns="http://www.w3.org/2000/svg" xmlns:xlink="http://www.w3.org/1999/xlink" width="500" height="500" preserveAspectRatio="xMidYMid meet" version="1.0" viewBox="0 0 375 375" zoomAndPan="magnify"><path fill="#eceff1" fill-opacity="1" fill-rule="nonzero" d="M 148.019531 107.746094 L 149.027344 130.925781 L 132.902344 161.160156 L 107.707031 210.542969 L 102.667969 251.863281 L 120.808594 310.316406 L 162.128906 333.496094 L 224.613281 333.496094 L 283.066406 289.152344 L 309.269531 219.613281 L 248.800781 146.042969 L 231.667969 104.722656 Z M 148.019531 107.746094"/><path fill="#263238" fill-opacity="1" fill-rule="nonzero" d="M 291.128906 165.191406 C 275.003906 142.011719 261.902344 127.902344 254.847656 98.675781 C 247.792969 69.449219 256.863281 77.511719 250.816406 52.316406 C 247.792969 39.214844 242.753906 30.144531 237.714844 23.089844 C 231.667969 16.035156 224.613281 12.003906 220.582031 10.996094 C 211.511719 5.957031 190.347656 -2.105469 164.144531 12.003906 C 136.933594 26.113281 139.957031 56.347656 144.996094 117.824219 C 144.996094 121.855469 143.988281 126.894531 141.972656 130.925781 C 137.941406 139.996094 130.886719 148.058594 124.839844 155.113281 C 117.785156 165.191406 110.730469 175.269531 105.691406 186.355469 C 93.597656 209.535156 82.511719 238.761719 85.535156 249.847656 C 90.574219 248.839844 154.066406 345.589844 154.066406 347.605469 C 158.097656 346.597656 175.230469 346.597656 190.347656 346.597656 C 211.511719 345.589844 223.605469 344.582031 240.738281 348.613281 C 240.738281 345.589844 239.730469 342.566406 239.730469 339.542969 C 239.730469 333.496094 240.738281 328.457031 241.746094 321.402344 C 242.753906 316.363281 243.761719 311.324219 244.769531 305.277344 C 234.691406 314.347656 216.550781 324.425781 199.417969 327.449219 C 184.300781 330.472656 159.105469 325.433594 147.011719 310.316406 C 148.019531 310.316406 150.035156 310.316406 151.042969 309.308594 C 154.066406 308.300781 157.089844 307.292969 158.097656 305.277344 C 161.121094 300.238281 159.105469 295.199219 157.089844 292.175781 C 155.074219 289.152344 139.957031 278.066406 132.902344 272.019531 C 125.847656 265.972656 121.816406 262.949219 117.785156 258.917969 C 117.785156 258.917969 111.738281 252.871094 109.722656 250.855469 C 107.707031 248.839844 106.699219 246.824219 105.691406 245.816406 C 103.675781 240.777344 102.667969 234.730469 103.675781 226.667969 C 104.683594 215.582031 108.714844 206.511719 113.753906 196.433594 C 115.769531 192.402344 120.808594 184.339844 120.808594 184.339844 C 120.808594 184.339844 103.675781 226.667969 112.746094 239.769531 C 112.746094 239.769531 113.753906 226.667969 117.785156 213.566406 C 120.808594 204.496094 125.847656 191.394531 131.894531 184.339844 C 137.941406 177.285156 153.058594 151.082031 154.066406 134.957031 C 154.066406 127.902344 155.074219 120.847656 155.074219 115.808594 C 151.042969 111.777344 221.589844 101.699219 225.621094 112.785156 C 226.628906 116.816406 240.738281 153.097656 248.800781 172.246094 C 252.832031 181.316406 257.871094 189.378906 260.894531 199.457031 C 263.917969 210.542969 265.933594 225.660156 265.933594 240.777344 C 265.933594 243.800781 265.933594 248.839844 264.925781 253.878906 C 266.941406 253.878906 306.246094 211.550781 259.886719 176.277344 C 259.886719 176.277344 288.105469 189.378906 289.113281 215.582031 C 290.121094 236.746094 281.050781 253.878906 279.035156 256.902344 C 280.042969 256.902344 300.199219 265.972656 301.207031 265.972656 C 305.238281 265.972656 313.300781 262.949219 313.300781 262.949219 C 314.308594 259.925781 317.332031 251.863281 317.332031 248.839844 C 324.386719 225.660156 307.253906 188.371094 291.128906 165.191406 Z M 291.128906 165.191406"/><path fill="#eceff1" fill-opacity="1" fill-rule="nonzero" d="M 176.238281 78.519531 C 176.238281 79.179688 176.214844 79.835938 176.175781 80.496094 C 176.132812 81.152344 176.070312 81.804688 175.984375 82.449219 C 175.902344 83.097656 175.796875 83.738281 175.671875 84.371094 C 175.550781 85 175.40625 85.621094 175.242188 86.230469 C 175.078125 86.84375 174.894531 87.4375 174.691406 88.019531 C 174.488281 88.601562 174.269531 89.167969 174.03125 89.71875 C 173.792969 90.265625 173.535156 90.796875 173.265625 91.304688 C 172.992188 91.816406 172.703125 92.304688 172.398438 92.769531 C 172.097656 93.238281 171.78125 93.679688 171.449219 94.097656 C 171.117188 94.519531 170.773438 94.910156 170.414062 95.277344 C 170.058594 95.644531 169.691406 95.984375 169.3125 96.292969 C 168.933594 96.605469 168.546875 96.886719 168.148438 97.140625 C 167.753906 97.394531 167.351562 97.617188 166.9375 97.808594 C 166.527344 98 166.113281 98.160156 165.691406 98.289062 C 165.269531 98.417969 164.847656 98.511719 164.421875 98.578125 C 163.992188 98.640625 163.566406 98.675781 163.136719 98.675781 C 162.707031 98.675781 162.277344 98.640625 161.851562 98.578125 C 161.425781 98.511719 161 98.417969 160.582031 98.289062 C 160.160156 98.160156 159.742188 98 159.332031 97.808594 C 158.921875 97.617188 158.519531 97.394531 158.121094 97.140625 C 157.726562 96.886719 157.339844 96.605469 156.960938 96.292969 C 156.582031 95.984375 156.214844 95.644531 155.855469 95.277344 C 155.5 94.910156 155.15625 94.519531 154.824219 94.097656 C 154.492188 93.679688 154.175781 93.238281 153.871094 92.769531 C 153.570312 92.304688 153.28125 91.816406 153.007812 91.304688 C 152.734375 90.796875 152.480469 90.265625 152.242188 89.714844 C 152.003906 89.167969 151.785156 88.601562 151.582031 88.019531 C 151.378906 87.4375 151.195312 86.84375 151.03125 86.230469 C 150.867188 85.621094 150.722656 85 150.597656 84.371094 C 150.472656 83.738281 150.371094 83.097656 150.285156 82.449219 C 150.203125 81.804688 150.140625 81.152344 150.097656 80.496094 C 150.054688 79.835938 150.035156 79.179688 150.035156 78.519531 C 150.035156 77.859375 150.054688 77.199219 150.097656 76.542969 C 150.140625 75.886719 150.203125 75.234375 150.285156 74.585938 C 150.371094 73.9375 150.472656 73.300781 150.597656 72.667969 C 150.722656 72.035156 150.867188 71.414062 151.03125 70.804688 C 151.195312 70.195312 151.378906 69.597656 151.582031 69.015625 C 151.785156 68.433594 152.003906 67.871094 152.242188 67.320312 C 152.480469 66.773438 152.734375 66.242188 153.007812 65.730469 C 153.28125 65.222656 153.570312 64.734375 153.871094 64.265625 C 154.175781 63.800781 154.492188 63.355469 154.824219 62.9375 C 155.15625 62.519531 155.5 62.125 155.855469 61.757812 C 156.214844 61.390625 156.582031 61.054688 156.960938 60.742188 C 157.339844 60.429688 157.726562 60.148438 158.121094 59.898438 C 158.519531 59.644531 158.921875 59.421875 159.332031 59.230469 C 159.742188 59.039062 160.160156 58.878906 160.582031 58.75 C 161 58.621094 161.425781 58.523438 161.851562 58.460938 C 162.277344 58.394531 162.707031 58.363281 163.136719 58.363281 C 163.566406 58.363281 163.992188 58.394531 164.421875 58.460938 C 164.847656 58.523438 165.269531 58.621094 165.691406 58.75 C 166.113281 58.878906 166.527344 59.039062 166.9375 59.230469 C 167.351562 59.421875 167.753906 59.644531 168.148438 59.898438 C 168.546875 60.148438 168.933594 60.429688 169.3125 60.742188 C 169.691406 61.054688 170.058594 61.390625 170.414062 61.757812 C 170.773438 62.125 171.117188 62.519531 171.449219 62.9375 C 171.78125 63.355469 172.097656 63.800781 172.398438 64.265625 C 172.703125 64.734375 172.992188 65.222656 173.265625 65.730469 C 173.535156 66.242188 173.792969 66.773438 174.03125 67.320312 C 174.269531 67.871094 174.488281 68.433594 174.691406 69.015625 C 174.894531 69.597656 175.078125 70.195312 175.242188 70.804688 C 175.40625 71.414062 175.550781 72.035156 175.671875 72.667969 C 175.796875 73.300781 175.902344 73.9375 175.984375 74.585938 C 176.070312 75.234375 176.132812 75.886719 176.175781 76.542969 C 176.214844 77.199219 176.238281 77.859375 176.238281 78.519531 Z M 176.238281 78.519531"/><path fill="#eceff1" fill-opacity="1" fill-rule="nonzero" d="M 225.621094 77.511719 C 225.621094 78.269531 225.59375 79.027344 225.539062 79.78125 C 225.484375 80.539062 225.402344 81.289062 225.292969 82.03125 C 225.183594 82.777344 225.046875 83.511719 224.882812 84.238281 C 224.71875 84.964844 224.53125 85.679688 224.316406 86.382812 C 224.101562 87.082031 223.863281 87.769531 223.597656 88.4375 C 223.332031 89.105469 223.042969 89.757812 222.734375 90.390625 C 222.421875 91.019531 222.085938 91.628906 221.730469 92.214844 C 221.375 92.800781 221 93.363281 220.601562 93.902344 C 220.207031 94.4375 219.789062 94.949219 219.355469 95.429688 C 218.921875 95.910156 218.472656 96.363281 218.007812 96.785156 C 217.539062 97.207031 217.058594 97.59375 216.5625 97.953125 C 216.070312 98.3125 215.5625 98.636719 215.042969 98.925781 C 214.527344 99.214844 213.996094 99.472656 213.460938 99.691406 C 212.925781 99.914062 212.378906 100.097656 211.832031 100.246094 C 211.28125 100.394531 210.726562 100.503906 210.167969 100.578125 C 209.609375 100.652344 209.046875 100.691406 208.488281 100.691406 C 207.925781 100.691406 207.367188 100.652344 206.808594 100.578125 C 206.25 100.503906 205.695312 100.394531 205.144531 100.246094 C 204.59375 100.097656 204.050781 99.914062 203.515625 99.691406 C 202.976562 99.472656 202.449219 99.214844 201.929688 98.925781 C 201.414062 98.636719 200.90625 98.3125 200.410156 97.953125 C 199.917969 97.59375 199.4375 97.207031 198.96875 96.785156 C 198.503906 96.363281 198.050781 95.910156 197.617188 95.429688 C 197.183594 94.949219 196.769531 94.4375 196.371094 93.902344 C 195.976562 93.363281 195.601562 92.800781 195.242188 92.214844 C 194.886719 91.628906 194.554688 91.019531 194.242188 90.390625 C 193.929688 89.757812 193.640625 89.105469 193.378906 88.4375 C 193.113281 87.769531 192.875 87.082031 192.660156 86.382812 C 192.445312 85.679688 192.253906 84.964844 192.09375 84.238281 C 191.929688 83.511719 191.792969 82.777344 191.683594 82.03125 C 191.574219 81.289062 191.492188 80.539062 191.4375 79.78125 C 191.382812 79.027344 191.355469 78.269531 191.355469 77.511719 C 191.355469 76.75 191.382812 75.996094 191.4375 75.238281 C 191.492188 74.484375 191.574219 73.734375 191.683594 72.988281 C 191.792969 72.242188 191.929688 71.507812 192.09375 70.78125 C 192.253906 70.054688 192.445312 69.339844 192.660156 68.640625 C 192.875 67.9375 193.113281 67.253906 193.378906 66.582031 C 193.640625 65.914062 193.929688 65.265625 194.242188 64.632812 C 194.554688 64 194.886719 63.394531 195.242188 62.804688 C 195.601562 62.21875 195.976562 61.65625 196.371094 61.121094 C 196.769531 60.582031 197.183594 60.074219 197.617188 59.59375 C 198.050781 59.109375 198.503906 58.660156 198.96875 58.238281 C 199.4375 57.816406 199.917969 57.425781 200.410156 57.066406 C 200.90625 56.710938 201.414062 56.386719 201.929688 56.09375 C 202.449219 55.804688 202.976562 55.550781 203.515625 55.328125 C 204.050781 55.109375 204.59375 54.925781 205.144531 54.777344 C 205.695312 54.628906 206.25 54.515625 206.808594 54.441406 C 207.367188 54.367188 207.925781 54.332031 208.488281 54.332031 C 209.046875 54.332031 209.609375 54.367188 210.167969 54.441406 C 210.726562 54.515625 211.28125 54.628906 211.832031 54.777344 C 212.378906 54.925781 212.925781 55.109375 213.460938 55.328125 C 213.996094 55.550781 214.527344 55.804688 215.042969 56.09375 C 215.5625 56.386719 216.070312 56.710938 216.5625 57.066406 C 217.058594 57.425781 217.539062 57.816406 218.007812 58.238281 C 218.472656 58.660156 218.921875 59.109375 219.355469 59.59375 C 219.789062 60.074219 220.207031 60.582031 220.601562 61.121094 C 221 61.65625 221.375 62.21875 221.730469 62.804688 C 222.085938 63.394531 222.421875 64 222.734375 64.632812 C 223.042969 65.265625 223.332031 65.914062 223.597656 66.582031 C 223.863281 67.253906 224.101562 67.9375 224.316406 68.640625 C 224.53125 69.339844 224.71875 70.054688 224.882812 70.78125 C 225.046875 71.507812 225.183594 72.242188 225.292969 72.988281 C 225.402344 73.734375 225.484375 74.484375 225.539062 75.238281 C 225.59375 75.996094 225.621094 76.75 225.621094 77.511719 Z M 225.621094 77.511719"/><path fill="#212121" fill-opacity="1" fill-rule="nonzero" d="M 161.945312 68.78125 C 162.40625 68.722656 162.871094 68.742188 163.339844 68.839844 C 163.8125 68.9375 164.277344 69.109375 164.742188 69.355469 C 165.203125 69.605469 165.652344 69.921875 166.089844 70.3125 C 166.527344 70.703125 166.945312 71.15625 167.339844 71.671875 C 167.734375 72.1875 168.101562 72.757812 168.441406 73.378906 C 168.777344 74.003906 169.082031 74.667969 169.347656 75.371094 C 169.617188 76.078125 169.84375 76.8125 170.03125 77.570312 C 170.21875 78.332031 170.363281 79.109375 170.460938 79.894531 C 170.5625 80.683594 170.617188 81.46875 170.625 82.253906 C 170.632812 83.039062 170.59375 83.804688 170.507812 84.554688 C 170.425781 85.304688 170.296875 86.023438 170.125 86.710938 C 169.953125 87.398438 169.738281 88.039062 169.484375 88.640625 C 169.230469 89.238281 168.9375 89.78125 168.613281 90.265625 C 168.285156 90.75 167.929688 91.171875 167.542969 91.527344 C 167.15625 91.882812 166.746094 92.164062 166.316406 92.375 C 165.882812 92.585938 165.4375 92.722656 164.980469 92.777344 C 164.519531 92.835938 164.054688 92.816406 163.585938 92.722656 C 163.113281 92.625 162.648438 92.453125 162.1875 92.203125 C 161.722656 91.957031 161.273438 91.636719 160.835938 91.25 C 160.398438 90.859375 159.980469 90.40625 159.585938 89.890625 C 159.191406 89.375 158.824219 88.804688 158.484375 88.183594 C 158.148438 87.558594 157.84375 86.894531 157.578125 86.191406 C 157.308594 85.484375 157.082031 84.75 156.894531 83.988281 C 156.707031 83.226562 156.5625 82.453125 156.464844 81.664062 C 156.363281 80.878906 156.3125 80.089844 156.304688 79.308594 C 156.292969 78.523438 156.332031 77.757812 156.417969 77.007812 C 156.5 76.257812 156.628906 75.539062 156.800781 74.851562 C 156.972656 74.164062 157.1875 73.519531 157.441406 72.921875 C 157.695312 72.324219 157.988281 71.78125 158.3125 71.296875 C 158.640625 70.808594 158.996094 70.390625 159.382812 70.035156 C 159.769531 69.679688 160.179688 69.394531 160.609375 69.183594 C 161.042969 68.976562 161.488281 68.839844 161.945312 68.78125 Z M 161.945312 68.78125"/><path fill="#212121" fill-opacity="1" fill-rule="nonzero" d="M 217.558594 81.542969 C 217.558594 82.402344 217.492188 83.253906 217.363281 84.097656 C 217.234375 84.941406 217.042969 85.761719 216.789062 86.554688 C 216.539062 87.351562 216.226562 88.105469 215.859375 88.820312 C 215.492188 89.535156 215.074219 90.199219 214.605469 90.804688 C 214.136719 91.414062 213.628906 91.957031 213.078125 92.4375 C 212.527344 92.914062 211.949219 93.316406 211.335938 93.644531 C 210.726562 93.976562 210.09375 94.222656 209.445312 94.390625 C 208.796875 94.558594 208.140625 94.644531 207.480469 94.644531 C 206.816406 94.644531 206.164062 94.558594 205.515625 94.390625 C 204.863281 94.222656 204.234375 93.976562 203.625 93.644531 C 203.011719 93.316406 202.429688 92.914062 201.878906 92.4375 C 201.332031 91.957031 200.820312 91.414062 200.355469 90.804688 C 199.886719 90.199219 199.46875 89.535156 199.101562 88.820312 C 198.734375 88.105469 198.421875 87.351562 198.167969 86.554688 C 197.914062 85.761719 197.722656 84.941406 197.59375 84.097656 C 197.464844 83.253906 197.402344 82.402344 197.402344 81.542969 C 197.402344 80.683594 197.464844 79.828125 197.59375 78.984375 C 197.722656 78.140625 197.914062 77.324219 198.167969 76.527344 C 198.421875 75.734375 198.734375 74.976562 199.101562 74.261719 C 199.46875 73.546875 199.886719 72.886719 200.355469 72.277344 C 200.820312 71.667969 201.332031 71.125 201.878906 70.648438 C 202.429688 70.171875 203.011719 69.765625 203.625 69.4375 C 204.234375 69.109375 204.863281 68.859375 205.515625 68.691406 C 206.164062 68.523438 206.816406 68.441406 207.480469 68.441406 C 208.140625 68.441406 208.796875 68.523438 209.445312 68.691406 C 210.09375 68.859375 210.726562 69.109375 211.335938 69.4375 C 211.949219 69.765625 212.527344 70.171875 213.078125 70.648438 C 213.628906 71.125 214.136719 71.667969 214.605469 72.277344 C 215.074219 72.886719 215.492188 73.546875 215.859375 74.261719 C 216.226562 74.976562 216.539062 75.734375 216.789062 76.527344 C 217.042969 77.324219 217.234375 78.140625 217.363281 78.984375 C 217.492188 79.828125 217.558594 80.683594 217.558594 81.542969 Z M 217.558594 81.542969"/><path fill="#ffc107" fill-opacity="1" fill-rule="nonzero" d="M 341.519531 303.261719 C 337.488281 301.246094 330.433594 298.222656 324.386719 289.152344 C 321.363281 284.113281 322.371094 270.003906 317.332031 263.957031 C 314.308594 259.925781 310.277344 261.941406 309.269531 261.941406 C 300.199219 263.957031 279.035156 278.066406 264.925781 261.941406 C 262.910156 259.925781 259.886719 256.902344 254.847656 256.902344 C 249.808594 256.902344 247.792969 258.917969 245.777344 262.949219 C 243.761719 266.980469 243.761719 270.003906 243.761719 280.082031 C 243.761719 288.144531 243.761719 297.214844 242.753906 304.269531 C 240.738281 321.402344 237.714844 331.480469 237.714844 341.558594 C 237.714844 352.644531 240.738281 359.699219 244.769531 362.722656 C 247.792969 365.746094 252.832031 367.761719 263.917969 367.761719 C 275.003906 367.761719 282.058594 363.730469 289.113281 356.675781 C 294.152344 351.636719 298.183594 349.621094 312.292969 339.542969 C 323.378906 332.488281 340.511719 323.417969 343.535156 320.394531 C 345.550781 318.378906 348.574219 317.371094 348.574219 311.324219 C 348.574219 306.285156 344.542969 304.269531 341.519531 303.261719 Z M 341.519531 303.261719"/><path fill="#ffc107" fill-opacity="1" fill-rule="nonzero" d="M 138.949219 306.285156 C 128.871094 290.160156 127.863281 287.136719 120.808594 277.058594 C 114.761719 266.980469 101.660156 247.832031 93.597656 247.832031 C 87.550781 247.832031 84.527344 250.855469 80.496094 254.886719 C 76.464844 258.917969 72.433594 267.988281 65.378906 273.027344 C 59.332031 278.066406 42.199219 277.058594 38.167969 283.105469 C 34.136719 289.152344 42.199219 298.222656 42.199219 313.339844 C 42.199219 319.386719 37.160156 323.417969 36.152344 327.449219 C 35.144531 332.488281 34.136719 335.511719 36.152344 339.542969 C 40.183594 345.589844 45.222656 347.605469 79.488281 354.660156 C 97.628906 358.691406 114.761719 368.769531 125.847656 369.777344 C 136.933594 370.785156 156.082031 369.777344 156.082031 342.566406 C 157.089844 326.441406 148.019531 322.410156 138.949219 306.285156 Z M 138.949219 306.285156"/><path fill="#ffc107" fill-opacity="1" fill-rule="nonzero" d="M 158.097656 123.871094 C 152.050781 119.839844 147.011719 115.808594 147.011719 109.761719 C 147.011719 103.714844 151.042969 101.699219 157.089844 96.660156 C 158.097656 95.652344 169.183594 85.574219 180.269531 85.574219 C 191.355469 85.574219 204.457031 92.628906 209.496094 94.644531 C 218.566406 96.660156 227.636719 98.675781 226.628906 105.730469 C 225.621094 115.808594 224.613281 117.824219 214.535156 122.863281 C 207.480469 124.878906 194.378906 135.964844 185.308594 135.964844 C 181.277344 135.964844 175.230469 135.964844 171.199219 134.957031 C 168.175781 133.949219 163.136719 128.910156 158.097656 123.871094 Z M 158.097656 123.871094"/><path fill="#634703" fill-opacity="1" fill-rule="nonzero" d="M 156.082031 115.808594 C 158.097656 117.824219 161.121094 119.839844 164.144531 120.847656 C 166.160156 121.855469 169.183594 122.863281 169.183594 122.863281 C 173.214844 122.863281 176.238281 122.863281 178.253906 122.863281 C 183.292969 122.863281 190.347656 120.847656 197.402344 116.816406 C 204.457031 113.792969 205.464844 111.777344 210.503906 109.761719 C 215.542969 106.738281 220.582031 103.714844 218.566406 102.707031 C 216.550781 101.699219 214.535156 102.707031 207.480469 106.738281 C 201.433594 110.769531 196.394531 112.785156 190.347656 115.808594 C 187.324219 116.816406 183.292969 118.832031 180.269531 118.832031 C 177.246094 118.832031 174.222656 118.832031 171.199219 118.832031 C 168.175781 118.832031 166.160156 117.824219 163.136719 116.816406 C 161.121094 115.808594 160.113281 114.800781 159.105469 114.800781 C 157.089844 113.792969 153.058594 109.761719 151.042969 108.753906 C 151.042969 108.753906 149.027344 108.753906 150.035156 109.761719 C 153.058594 112.785156 154.066406 113.792969 156.082031 115.808594 Z M 156.082031 115.808594"/><path fill="#634703" fill-opacity="1" fill-rule="nonzero" d="M 186.316406 93.636719 C 187.324219 95.652344 189.339844 95.652344 190.347656 96.660156 C 191.355469 97.667969 192.363281 97.667969 192.363281 97.667969 C 193.371094 96.660156 192.363281 94.644531 191.355469 94.644531 C 191.355469 92.628906 186.316406 92.628906 186.316406 93.636719 Z M 186.316406 93.636719"/><path fill="#634703" fill-opacity="1" fill-rule="nonzero" d="M 170.191406 95.652344 C 170.191406 96.660156 172.207031 97.667969 172.207031 96.660156 C 173.214844 95.652344 174.222656 94.644531 175.230469 94.644531 C 177.246094 93.636719 176.238281 92.628906 173.214844 92.628906 C 171.199219 93.636719 171.199219 94.644531 170.191406 95.652344 Z M 170.191406 95.652344"/><path fill="#455a64" fill-opacity="1" fill-rule="nonzero" d="M 267.949219 274.035156 C 267.949219 275.042969 267.949219 276.050781 267.949219 277.058594 C 269.964844 281.089844 275.003906 282.097656 279.035156 282.097656 C 285.082031 282.097656 291.128906 278.066406 294.152344 274.035156 C 294.152344 273.027344 295.160156 272.019531 296.167969 271.011719 C 298.183594 267.988281 299.191406 265.972656 300.199219 264.964844 C 300.199219 264.964844 299.191406 263.957031 299.191406 262.949219 C 298.183594 260.933594 295.160156 258.917969 291.128906 257.910156 C 288.105469 256.902344 283.066406 255.894531 281.050781 255.894531 C 271.980469 254.886719 266.941406 257.910156 263.917969 260.933594 C 263.917969 260.933594 264.925781 260.933594 264.925781 261.941406 C 266.941406 263.957031 267.949219 265.972656 267.949219 268.996094 C 268.957031 271.011719 267.949219 272.019531 267.949219 274.035156 Z M 267.949219 274.035156"/></svg>